<?xml version="1.0" encoding="UTF-8"?>
<!-- Created with Inkscape (http://www.inkscape.org/) -->
<svg width="193.46mm" height="44.289mm" version="1.1" viewBox="0 0 685.49 156.93" xmlns="http://www.w3.org/2000/svg" xmlns:cc="http://creativecommons.org/ns#" xmlns:dc="http://purl.org/dc/elements/1.1/" xmlns:rdf="http://www.w3.org/1999/02/22-rdf-syntax-ns#">
 <defs>
  <marker id="marker9883" overflow="visible" orient="auto">
   <path transform="matrix(-.4 0 0 -.4 -4 0)" d="m0 0 5-5-17.5 5 17.5 5z" fill-rule="evenodd" stroke="#000" stroke-width="1pt"/>
  </marker>
  <marker id="marker926" overflow="visible" orient="auto">
   <path transform="scale(.8)" d="m5.77 0-8.65 5v-10z" fill-rule="evenodd" stroke="#000" stroke-width="1pt"/>
  </marker>
  <marker id="marker7791" overflow="visible" orient="auto">
   <path transform="scale(.8)" d="m5.77 0-8.65 5v-10z" fill="#c3c3c3" fill-rule="evenodd" stroke="#c3c3c3" stroke-width="1pt"/>
  </marker>
  <marker id="TriangleOutL" overflow="visible" orient="auto">
   <path transform="scale(.8)" d="m5.77 0-8.65 5v-10z" fill-rule="evenodd" stroke="#000" stroke-width="1pt"/>
  </marker>
 </defs>
 <metadata>
  <rdf:RDF>
   <cc:Work rdf:about="">
    <dc:format>image/svg+xml</dc:format>
    <dc:type rdf:resource="http://purl.org/dc/dcmitype/StillImage"/>
    <dc:title/>
   </cc:Work>
  </rdf:RDF>
 </metadata>
 <g transform="translate(-17.615 -235.66)">
  <g transform="translate(8)">
   <g transform="translate(-225.52 -130.07)" stroke="#000">
    <g transform="matrix(.66968 0 0 .66968 328.22 289.8)" stroke-width="1.4933">
     <g>
      <path d="m105.38 114.13 0.01 232.84 178.18-3e-3v-203.3l-27.844-29.356z" fill="#fff" fill-rule="evenodd"/>
      <path d="m255.68 114.22v29.89h28.08" fill="#fff" fill-rule="evenodd"/>
      <rect x="129.58" y="216.28" width="147.48" height="65.66" ry="0" fill="#b2d1ff"/>
      <rect x="129.51" y="152.21" width="147.63" height="46.877" ry="0" fill="#9fe59f"/>
     </g>
     <path d="m139.86 251.29c-44.401-2.0778-32.56-30.417-16.429-46.429" fill="none" marker-end="url(#TriangleOutL)"/>
     <rect x="140.37" y="246.47" width="70.535" height="9.6058" ry="4.8029" fill="#9fe59f"/>
    </g>
    <g transform="translate(115.54 -157.58)">
     <g>
      <path d="m120.1 523.81 7e-3 155.93 119.32-2e-3v-136.15l-18.647-19.659z" fill="#fff" fill-rule="evenodd"/>
      <path d="m220.75 523.87v20.017h18.805" fill="#fff" fill-rule="evenodd"/>
      <rect x="136.3" y="592.22" width="98.766" height="43.971" ry="0" fill="#fea"/>
      <rect x="143.53" y="612.43" width="47.236" height="6.4328" ry="3.2164" fill="#9fe59f"/>
     </g>
     <path d="m143.19 615.66c-69.243-45.923 118.15-65.905 149.38-65.579" fill="none" marker-end="url(#marker926)"/>
    </g>
   </g>
   <g transform="translate(-20 -4.5997)">
    <g transform="translate(-469.09 177.6)">
     <g stroke="#000">
      <path d="m1064.4 63.163 0.01 155.93 119.32-2e-3v-136.15l-18.647-19.659z" fill="#fff" fill-rule="evenodd"/>
      <path d="m1165 63.222v20.017h18.805" fill="none"/>
      <rect x="1080.5" y="185.86" width="98.965" height="21.688" ry="0" fill="#b2d1ff"/>
      <rect x="1080.5" y="88.664" width="98.863" height="31.392" ry="0" fill="#9fe59f"/>
     </g>
     <path d="m1087.4 155.02c-29.734-1.3915-21.804-20.369-11.002-31.092" fill="none" marker-end="url(#marker7791)" stroke="#c3c3c3"/>
     <rect x="1080.5" y="131.48" width="98.955" height="22.634" ry="0" fill="#b2d1ff" stroke="#000"/>
     <rect x="1080.5" y="154.29" width="98.863" height="31.392" ry="0" fill="#9fe59f" stroke="#000"/>
    </g>
    <g transform="translate(312.02 -283.05)" stroke="#000">
     <g>
      <path d="m120.1 523.81 7e-3 155.93 119.32-2e-3v-136.15l-18.647-19.659z" fill="#fff" fill-rule="evenodd"/>
      <path d="m220.75 523.87v20.017h18.805" fill="#fff" fill-rule="evenodd"/>
      <rect x="136.3" y="592.22" width="98.766" height="43.971" ry="0" fill="#fea"/>
      <rect x="143.53" y="612.43" width="47.236" height="6.4328" ry="3.2164" fill="#9fe59f"/>
     </g>
     <path d="m143.19 615.66c-69.243-45.923 118.15-65.905 149.38-65.579" fill="none" marker-end="url(#marker926)"/>
    </g>
   </g>
   <g>
    <path d="m297.86 322.46h108.57" fill="none" marker-end="url(#marker9883)" stroke="#000" stroke-dasharray="6, 2" stroke-width="2"/>
    <text x="353.93915" y="312.92136" color="#000000" color-rendering="auto" fill="#000000" font-family="'Latin Modern Roman'" image-rendering="auto" letter-spacing="0px" shape-rendering="auto" solid-color="#000000" stroke-width="1px" text-align="center" text-anchor="middle" text-rendering="auto" word-spacing="0px" style="isolation:auto;line-height:0%;mix-blend-mode:normal;text-decoration-color:#000000;text-decoration-line:none;text-decoration-style:solid;text-indent:0;text-transform:none;white-space:normal" xml:space="preserve"><tspan x="353.93915" y="312.92136" font-size="17.5px" style="line-height:1.25">Inlining</tspan></text>
   </g>
  </g>
 </g>
</svg>
